<svg width="40" height="40" viewBox="0 0 40 40" fill="none" xmlns="http://www.w3.org/2000/svg">
<path d="M19.9997 21.2496C19.7917 21.2496 19.5839 21.1978 19.396 21.0941L3.34284 12.2402C2.73831 11.9068 2.51854 11.1465 2.85198 10.542C3.18542 9.93749 3.94581 9.71781 4.55018 10.0512L19.9997 18.5721L35.4496 10.0512C36.0542 9.71788 36.8144 9.93757 37.1478 10.542C37.4812 11.1466 37.2614 11.9069 36.6569 12.2402L20.6034 21.0941C20.4155 21.1978 20.2076 21.2496 19.9997 21.2496Z" fill="white"/>
<path d="M29.8144 34.6633H10.1854C5.79797 34.6633 2.22852 31.0938 2.22852 26.7062V13.293C2.22852 8.90547 5.79789 5.33594 10.1854 5.33594H29.8144C34.202 5.33594 37.7715 8.90547 37.7715 13.293V26.7062C37.7715 31.0937 34.202 34.6633 29.8144 34.6633ZM10.1854 7.83594C7.17648 7.83594 4.72852 10.2839 4.72852 13.293V26.7062C4.72852 29.7152 7.17641 32.1633 10.1854 32.1633H29.8144C32.8234 32.1633 35.2715 29.7153 35.2715 26.7062V13.293C35.2715 10.2839 32.8234 7.83594 29.8144 7.83594H10.1854Z" fill="white"/>
</svg>
