<svg width="161" height="167" viewBox="0 0 161 167" fill="none" xmlns="http://www.w3.org/2000/svg">
<g clip-path="url(#clip0_38_71)">
<path d="M29.7239 79.785C29.4821 79.0155 28.8406 78.4562 28.0677 78.3394L20.2381 77.1593L16.7395 69.8266C16.0468 68.3768 13.7572 68.3768 13.0645 69.8266L9.56588 77.1593L1.75486 78.3394C0.984138 78.4562 0.342654 79.0175 0.10084 79.7873C-0.140975 80.5548 0.0599608 81.3989 0.619373 81.9641L6.28456 87.6917L4.94813 95.7726C4.81701 96.5698 5.13272 97.3777 5.76383 97.8539C6.39713 98.3279 7.23547 98.3898 7.92412 98.0134L14.9012 94.1972L21.8987 98.0134C22.1981 98.1772 22.5261 98.2581 22.8518 98.2581C23.276 98.2581 23.7002 98.1198 24.059 97.8543C24.6904 97.3758 25.0058 96.5701 24.8747 95.773L23.5405 87.692L29.2057 81.9645C29.7651 81.4008 29.9657 80.5548 29.7239 79.785Z" fill="#D5D907"/>
<path d="M62.5178 79.785C62.276 79.0155 61.6345 78.4562 60.8616 78.3394L53.032 77.1593L49.5334 69.8266C48.8407 68.3768 46.5512 68.3768 45.8584 69.8266L42.3598 77.1593L34.5488 78.3394C33.7781 78.4562 33.1366 79.0175 32.8948 79.7873C32.653 80.5548 32.8539 81.3989 33.4133 81.9641L39.0785 87.6917L37.7421 95.7726C37.611 96.5698 37.9267 97.38 38.5578 97.8539C39.1892 98.3279 40.0294 98.3898 40.7181 98.0134L47.6951 94.1972L54.6927 98.0134C54.992 98.1772 55.32 98.2581 55.6458 98.2581C56.07 98.2581 56.4942 98.1198 56.853 97.8543C57.4844 97.3758 57.7998 96.5701 57.6687 95.773L56.3344 87.692L61.9996 81.9645C62.559 81.4008 62.7597 80.5548 62.5178 79.785Z" fill="#D5D907"/>
<path d="M95.3118 79.785C95.07 79.0155 94.4285 78.4562 93.6556 78.3394L85.826 77.1593L82.3274 69.8266C81.6347 68.3768 79.3451 68.3768 78.6524 69.8266L75.1538 77.1593L67.3428 78.3394C66.572 78.4562 65.9305 79.0175 65.6887 79.7873C65.4469 80.5548 65.6479 81.3989 66.2073 81.9641L71.8724 87.6917L70.536 95.7726C70.4049 96.5698 70.7206 97.3777 71.3517 97.8539C71.985 98.3279 72.8234 98.3898 73.512 98.0134L80.4888 94.1972L87.4863 98.0134C87.7857 98.1772 88.1136 98.2581 88.4394 98.2581C88.8636 98.2581 89.2878 98.1198 89.6466 97.8543C90.278 97.3758 90.5934 96.5701 90.4623 95.773L89.1281 87.692L94.7932 81.9645C95.353 81.4008 95.5536 80.5548 95.3118 79.785Z" fill="#D5D907"/>
<path d="M128.106 79.785C127.864 79.0155 127.223 78.4562 126.45 78.3394L118.62 77.1593L115.122 69.8266C114.429 68.3768 112.14 68.3768 111.447 69.8266L107.948 77.1593L100.137 78.3394C99.3665 78.4562 98.725 79.0175 98.4832 79.7873C98.2413 80.5548 98.4423 81.3989 99.0017 81.9641L104.667 87.6917L103.33 95.7726C103.199 96.5698 103.515 97.3777 104.146 97.8539C104.779 98.3279 105.618 98.3898 106.306 98.0134L113.283 94.1972L120.281 98.0134C120.58 98.1772 120.908 98.2581 121.234 98.2581C121.658 98.2581 122.082 98.1198 122.441 97.8543C123.072 97.3758 123.388 96.5701 123.257 95.773L121.923 87.692L127.588 81.9645C128.147 81.4008 128.348 80.5548 128.106 79.785Z" fill="#D5D907"/>
<path d="M160.9 79.785C160.656 79.0155 160.017 78.4562 159.244 78.3394L151.414 77.1593L147.916 69.8266C147.223 68.3768 144.933 68.3768 144.241 69.8266L140.742 77.1593L132.931 78.3394C132.16 78.4562 131.519 79.0175 131.277 79.7873C131.035 80.5548 131.236 81.3989 131.796 81.9641L137.461 87.6917L136.124 95.7726C135.993 96.5698 136.309 97.3777 136.94 97.8539C137.297 98.1217 137.719 98.2577 138.143 98.2577C138.471 98.2577 138.799 98.1768 139.102 98.0131L146.079 94.1969L153.079 98.0131C153.767 98.3937 154.604 98.3298 155.237 97.8516C155.866 97.3754 156.182 96.5698 156.051 95.7723L154.717 87.6914L160.382 81.9638C160.941 81.4008 161.14 80.5547 160.9 79.785Z" fill="#D5D907"/>
</g>
<defs>
<clipPath id="clip0_38_71">
<rect width="161" height="167" fill="white"/>
</clipPath>
</defs>
</svg>
