<svg width="50" height="50" viewBox="0 0 50 50" fill="none" xmlns="http://www.w3.org/2000/svg">
<g clip-path="url(#clip0_42_42)">
<path d="M24.9998 49.2174C38.3745 49.2174 49.2169 38.375 49.2169 25.0003C49.2169 11.6256 38.3745 0.783203 24.9998 0.783203C11.6251 0.783203 0.782715 11.6256 0.782715 25.0003C0.782715 38.375 11.6251 49.2174 24.9998 49.2174Z" fill="#FFC6C6"/>
<path d="M28.3401 48.3816C14.9654 48.3816 4.12305 37.5393 4.12305 24.1646C4.12305 13.4231 11.117 4.3166 20.7988 1.14648C9.42666 3.13564 0.782715 13.0577 0.782715 24.9996C0.782715 38.3743 11.6251 49.2167 24.9998 49.2167C27.6331 49.2167 30.1676 48.7948 32.5411 48.0177C31.1766 48.2562 29.7729 48.3816 28.3401 48.3816Z" fill="#FFC6C6"/>
<path d="M18.4212 39.1964L16.498 27.6574L36.6911 11.3105L18.4212 39.1964Z" fill="#B2B2B2"/>
<path d="M20.8247 29.0998L18.4209 39.1964L36.6908 11.3105L20.8247 29.0998Z" fill="#CCCCCC"/>
<path d="M20.8252 29.0998L36.6913 11.3105L35.2904 35.1239C35.2705 35.463 34.9148 35.675 34.6071 35.5313L20.8252 29.0998Z" fill="#E5E5E5"/>
<path d="M36.6913 11.3105L9.77104 23.8424C9.39575 24.0171 9.402 24.5528 9.7813 24.7187L16.4982 27.6572L36.6913 11.3105Z" fill="#E5E5E5"/>
<path d="M47.9127 14.9846C46.5751 11.9287 44.667 9.20742 42.2415 6.89678C41.9283 6.59844 41.4329 6.61035 41.1346 6.92363C40.8363 7.23672 40.8483 7.73223 41.1614 8.03037C45.8513 12.4982 48.4342 18.5249 48.4342 25C48.4342 37.9217 37.9217 48.4343 24.9999 48.4343C12.0781 48.4343 1.56572 37.9217 1.56572 25C1.56572 12.0783 12.0783 1.56572 25 1.56572C29.7203 1.56572 34.2705 2.96279 38.1584 5.60566C38.5159 5.84873 39.0028 5.75586 39.246 5.39844C39.4891 5.04082 39.3962 4.55391 39.0387 4.31084C34.89 1.49072 30.0355 0 25 0C18.3223 0 12.0442 2.60039 7.32236 7.32236C2.60049 12.0442 0 18.3223 0 25C0 31.6777 2.60049 37.9558 7.32236 42.6776C12.0442 47.3996 18.3223 50 25 50C31.6777 50 37.9558 47.3996 42.6776 42.6776C47.3995 37.9558 50 31.6777 50 25C50 21.5184 49.2978 18.1486 47.9127 14.9846Z" fill="black"/>
<path d="M37.4731 11.2897C37.4576 10.7354 36.8623 10.3691 36.3605 10.6011L21.3042 17.61C20.9122 17.7924 20.7424 18.2582 20.9249 18.6502C21.1074 19.0422 21.5732 19.2122 21.965 19.0296L31.2527 14.706L26.7373 18.3613L16.3753 26.7496L10.7078 24.2699L18.6497 20.5729C19.0417 20.3904 19.2116 19.9246 19.029 19.5326C18.8465 19.1406 18.3807 18.9706 17.989 19.1532L9.44018 23.1329C8.98569 23.3445 8.69877 23.8072 8.7103 24.3082C8.72153 24.7985 9.01782 25.2397 9.46694 25.4362L15.7953 28.2047L17.6487 39.3252C17.7627 40.0128 18.6938 40.2086 19.0757 39.6255L24.3331 31.601L34.2756 36.2408C35.0722 36.6129 36.0202 36.0444 36.0715 35.1699L37.4722 11.3566C37.4738 11.3346 37.4737 11.3119 37.4731 11.2897ZM23.7665 29.6088L22.1096 28.8357L30.2609 19.6964L29.0819 21.496L23.7665 29.6088ZM21.364 30.2155L22.8996 30.9321L20.2194 35.0229L21.364 30.2155ZM29.6857 17.9889L20.2406 28.5788C20.1556 28.6741 20.0925 28.7941 20.0632 28.9186L18.5563 35.2474L17.345 27.979L29.6857 17.9889ZM34.5347 34.634L25.2001 30.2779L35.737 14.1954L34.5347 34.634Z" fill="black"/>
</g>
<defs>
<clipPath id="clip0_42_42">
<rect width="50" height="50" fill="white"/>
</clipPath>
</defs>
</svg>
