<svg width="50" height="50" viewBox="0 0 50 50" fill="none" xmlns="http://www.w3.org/2000/svg">
<g clip-path="url(#clip0_42_34)">
<path d="M43.5547 49.0234H6.44531C3.425 49.0234 0.976562 46.575 0.976562 43.5547V6.44531C0.976562 3.425 3.425 0.976562 6.44531 0.976562H43.5547C46.575 0.976562 49.0234 3.425 49.0234 6.44531V43.5547C49.0234 46.575 46.575 49.0234 43.5547 49.0234Z" fill="#FFC6C6"/>
<path d="M9.21851 15.918H13.4561C14.1157 15.918 14.6986 16.3448 14.898 16.9736C15.3234 18.3147 16.1673 20.7054 17.3503 22.7865C18.3109 24.4766 19.4757 25.8943 20.3346 26.8327C20.7653 27.3032 21.5495 26.997 21.5495 26.3591V20.2437C21.5495 19.3465 21.268 18.4719 20.7448 17.7432L20.3301 17.1656C20.2339 17.0316 20.1823 16.8709 20.1823 16.7061C20.1823 16.2708 20.5351 15.918 20.9704 15.918H26.8962C27.431 15.918 27.8646 16.3516 27.8646 16.8864V24.7263C27.8646 25.2352 28.391 25.5735 28.854 25.3622L29.257 25.1782C29.3263 25.1466 29.3889 25.1018 29.4412 25.0462C31.4784 22.883 33.1299 20.3867 34.3241 17.6658L34.7672 16.6561C34.964 16.2077 35.4075 15.9185 35.8971 15.9189L40.0811 15.9238C40.866 15.9247 41.3669 16.7615 40.9969 17.4537L39.0639 21.0706C38.8139 21.5385 38.5357 21.9907 38.231 22.4249L35.9689 25.6483C35.5673 26.2206 35.6448 27.0005 36.151 27.4826L37.8077 29.0602C39.0898 30.2811 40.2073 31.664 41.1317 33.1738L41.6273 33.9833C42.09 34.7391 41.5462 35.7097 40.66 35.7097H37.0478C36.3171 35.7097 35.6175 35.4142 35.1082 34.8903L31.4963 31.1764C30.7808 30.4407 29.8653 29.9313 28.863 29.7113C28.3502 29.5987 27.8646 29.9893 27.8646 30.5144V34.1634C27.8646 35.0174 27.1723 35.7096 26.3184 35.7096C23.2887 35.7096 20.3433 34.7123 17.9369 32.8717C13.6734 29.6107 10.5822 25.0554 9.12662 19.889L8.33619 17.0832C8.17134 16.4983 8.61089 15.918 9.21851 15.918Z" fill="white"/>
<path d="M40.6599 36.6862H37.0476C36.0592 36.6862 35.0971 36.2798 34.408 35.5713L30.7961 31.8574C30.2572 31.3033 29.5847 30.9095 28.841 30.7109V34.1635C28.841 35.5545 27.7093 36.6862 26.3183 36.6862C23.0928 36.6862 19.9055 35.607 17.3435 33.6475C16.3743 32.9062 15.45 32.0889 14.5962 31.218C14.2187 30.8329 14.2247 30.2146 14.6099 29.8369C14.9951 29.4593 15.6134 29.4656 15.9909 29.8506C16.7801 30.6555 17.6344 31.411 18.5301 32.0961C20.7534 33.7966 23.5193 34.7331 26.3184 34.7331C26.6325 34.7331 26.888 34.4775 26.888 34.1635V30.5145C26.888 29.9669 27.1327 29.4561 27.5595 29.1128C27.9862 28.7695 28.538 28.6401 29.0725 28.7576C30.2649 29.0193 31.3451 29.6204 32.1963 30.4956L35.8082 34.2095C36.1317 34.5422 36.5835 34.733 37.0476 34.733H40.6599C40.6826 34.733 40.7521 34.733 40.7973 34.6524C40.8424 34.5719 40.8061 34.5126 40.7942 34.4932L40.2987 33.6837C39.4189 32.2469 38.3542 30.9291 37.1341 29.7673L35.4774 28.1897C34.6143 27.3678 34.4847 26.063 35.1694 25.0872L37.4315 21.8638C37.7126 21.4632 37.9721 21.0414 38.2026 20.6101L40.1356 16.9933C40.1423 16.9807 40.1525 16.9617 40.1341 16.931C40.1157 16.9003 40.0941 16.9002 40.0799 16.9002L35.8958 16.8954H35.8955C35.794 16.8954 35.7021 16.9554 35.6614 17.0483L35.2183 18.0581C33.9759 20.8887 32.2714 23.465 30.152 25.7156C30.0123 25.864 29.8476 25.982 29.662 26.0666L29.2594 26.2504C28.7381 26.4884 28.1394 26.4455 27.6575 26.1356C27.1756 25.8259 26.8879 25.299 26.8879 24.7261V16.8945H21.3376L21.5381 17.1736C22.1843 18.0737 22.526 19.1354 22.526 20.2437V26.3591C22.526 27.0561 22.1061 27.6696 21.4562 27.9221C20.8072 28.1744 20.0842 28.0054 19.6143 27.492C18.7564 26.5549 17.5202 25.0615 16.5013 23.2689C15.2594 21.0843 14.3805 18.5719 13.9671 17.2688C13.8961 17.0449 13.6907 16.8945 13.4561 16.8945H9.29736L10.0664 19.6241C10.5143 21.2137 11.1298 22.7611 11.8959 24.2235C12.1462 24.7013 11.9619 25.2915 11.4841 25.5418C11.0062 25.7921 10.4161 25.6076 10.1659 25.13C9.33691 23.5478 8.6709 21.8735 8.18642 20.1537L7.3959 17.348C7.23369 16.7722 7.34785 16.1685 7.70888 15.6916C8.07021 15.2148 8.62021 14.9414 9.21826 14.9414H13.456C14.5457 14.9414 15.4992 15.6395 15.8288 16.6783C16.2189 17.9083 17.0457 20.2746 18.1991 22.3039C18.9523 23.629 19.8421 24.7815 20.5728 25.6303V20.2437C20.5728 19.5466 20.358 18.8789 19.9515 18.3128L19.5368 17.7352C19.3202 17.4336 19.2057 17.0776 19.2057 16.7061C19.2057 15.733 19.9972 14.9414 20.9702 14.9414H26.8961C27.9685 14.9414 28.841 15.814 28.841 16.8864V24.2582C30.7557 22.1986 32.299 19.8496 33.4297 17.2733L33.8728 16.2636C34.2251 15.4608 35.0189 14.9424 35.8955 14.9424C35.8964 14.9424 35.8972 14.9424 35.898 14.9424L40.0821 14.9472C40.7968 14.9479 41.4428 15.3146 41.8098 15.9278C42.1769 16.5411 42.1949 17.2836 41.858 17.9139L39.925 21.5308C39.6574 22.0313 39.3564 22.5209 39.0302 22.9857L36.7681 26.2092C36.6432 26.3872 36.6668 26.6253 36.8242 26.7753L38.481 28.3528C39.8239 29.6317 40.996 31.0821 41.9644 32.6639L42.4599 33.4733C42.8582 34.1239 42.874 34.9416 42.5012 35.6071C42.1284 36.2728 41.4228 36.6862 40.6599 36.6862Z" fill="black"/>
<path d="M12.8843 28.6501C12.5802 28.6501 12.2805 28.5085 12.0898 28.2425L12.8835 27.6734L12.0856 28.2367C12.0852 28.2361 12.0794 28.228 12.079 28.2274C11.7647 27.7891 11.8653 27.179 12.3036 26.8647C12.742 26.5503 13.3519 26.651 13.6663 27.0893L13.6771 27.1044C13.9914 27.5427 13.8908 28.1527 13.4525 28.4671C13.2801 28.5906 13.0812 28.6501 12.8843 28.6501Z" fill="black"/>
<path d="M20.0063 45.3125H12.0474C11.5081 45.3125 11.0708 44.8753 11.0708 44.3359C11.0708 43.7966 11.5081 43.3594 12.0474 43.3594H20.0063C20.5456 43.3594 20.9829 43.7966 20.9829 44.3359C20.9829 44.8753 20.5457 45.3125 20.0063 45.3125Z" fill="black"/>
<path d="M24.4496 45.3125H24.438C23.8987 45.3125 23.4614 44.8753 23.4614 44.3359C23.4614 43.7966 23.8987 43.3594 24.438 43.3594H24.4496C24.9889 43.3594 25.4262 43.7966 25.4262 44.3359C25.4262 44.8753 24.989 45.3125 24.4496 45.3125Z" fill="black"/>
<path d="M43.5547 50H6.44531C2.89131 50 0 47.1087 0 43.5547V6.44531C0 2.89131 2.89131 0 6.44531 0H43.5547C47.1087 0 50 2.89131 50 6.44531V43.5547C50 47.1087 47.1087 50 43.5547 50ZM6.44531 1.95312C3.96836 1.95312 1.95312 3.96836 1.95312 6.44531V43.5547C1.95312 46.0316 3.96836 48.0469 6.44531 48.0469H43.5547C46.0316 48.0469 48.0469 46.0316 48.0469 43.5547V6.44531C48.0469 3.96836 46.0316 1.95312 43.5547 1.95312H6.44531Z" fill="black"/>
</g>
<defs>
<clipPath id="clip0_42_34">
<rect width="50" height="50" fill="white"/>
</clipPath>
</defs>
</svg>
